<svg width="300" height="300" xmlns="http://www.w3.org/2000/svg">
 <g>
  <title>Layer 1</title>
  <g stroke="null">
   <svg stroke="null" x="0" viewBox="0 0 312.5 308.60782283369844" height="150" width="150" fill="#26242e" xmlns:xlink="http://www.w3.org/1999/xlink" xmlns="http://www.w3.org/2000/svg">

    <g stroke="null" transform="matrix(2.593106007732617,0,0,2.5293106007732617,33.14240198522162,23.18502043936323)" featurekey="symbolFeature-0" id="svg_4">
     <g stroke="null" xmlns="http://www.w3.org/2000/svg">
      <path stroke="null" d="m10.1,80.7c5.6,4.2 12.6,4.1 19.3,3.1c7.6,-1.1 14.8,-2.8 22.5,-2.8c7.5,0 15.2,2 22.7,1c6.6,-0.9 12.1,-4.9 13.9,-11.5c1.7,-6 0.1,-12.7 -4.6,-16.9c-3.3,-2.9 -8.1,1.9 -4.8,4.8c3,2.6 3.9,6.8 2.7,10.6c-1.6,4.9 -6.4,6.3 -11.1,6.3c-5.9,0 -11.7,-1.2 -17.5,-1.2c-6.4,0 -12.8,0.7 -19.1,1.9c-5.2,1 -11.1,2.6 -16.3,1c-4.8,-1.4 -7.5,-5.7 -7.8,-10.5c-0.6,-11 10.2,-18.7 19.2,-22.4c5.7,-2.3 11.9,-3.5 18,-3.7c3.3,-0.1 6.6,0.1 9.9,0.7c3,0.5 5.9,1.3 8.9,1.3c1.1,0 1.8,-1.5 0.9,-2.3c-4.9,-4.4 -12.5,-5.3 -18.8,-5.6c-7,-0.4 -14.2,0.8 -20.7,3.3c-11.6,4.5 -23.7,13.6 -24.3,27c-0.3,6 2.1,12.3 7,15.9z"/>
      <path stroke="null" d="m76.6,46.7c-0.4,-0.2 -0.7,-0.5 -1.1,-0.7c-0.5,-0.3 -1.3,-0.4 -1.9,-0.2c-0.5,0.2 -0.9,0.5 -1.3,0.9c-0.8,1 -0.6,2.3 0.2,3.2c0.3,0.3 0.6,0.7 0.9,1c0.5,0.5 1.2,0.7 1.9,0.8c0.8,0 1.6,-0.4 2.1,-1c0.4,-0.6 0.6,-1.2 0.5,-1.9c-0.1,-1 -0.6,-1.6 -1.3,-2.1z"/>
      <path stroke="null" d="m30.3,58.1c-2.3,1 -4.2,2.5 -5.8,4.3c-1.2,1.3 -1.4,3.1 -0.3,4.6c1,1.3 3,1.9 4.5,0.9c1.8,-1.2 3.5,-2.4 5.5,-3.2c1.8,-0.8 2.4,-3.6 1.4,-5.2c-1.3,-1.9 -3.3,-2.3 -5.3,-1.4z"/>
      <path stroke="null" d="m59.6,58.1c-1.8,-0.8 -4.2,-0.6 -5.2,1.4c-0.9,1.6 -0.6,4.4 1.4,5.2c1.9,0.8 3.7,2 5.5,3.2c1.4,1 3.5,0.4 4.5,-0.9c1.1,-1.4 0.9,-3.2 -0.3,-4.6c-1.7,-1.8 -3.6,-3.3 -5.9,-4.3z"/>
      <path stroke="null" d="m82.8,12c-1.3,-2.1 -4.5,-3.4 -6.8,-1.8c-2.5,1.8 -4.9,3.2 -6.6,5.9c-1.1,1.8 0.1,3.6 1.7,4.3c3,1.2 6.9,0 9.8,-1.7c2.4,-1.2 3.4,-4.5 1.9,-6.7z"/>
      <path stroke="null" d="m7,18.8c2.9,1.7 6.8,2.9 9.8,1.7c1.7,-0.7 2.8,-2.5 1.7,-4.3c-1.7,-2.8 -4.1,-4.1 -6.6,-5.9c-2,-1.6 -5.5,-0.5 -6.7,1.7c-1.2,2.4 -0.6,5.4 1.8,6.8z"/>
     </g>
    </g>
   </svg>
   <svg stroke="null" x="150" viewBox="0 0 312.5 308.60782283369844" height="150" width="150" fill="#ffffff" xmlns:xlink="http://www.w3.org/1999/xlink" xmlns="http://www.w3.org/2000/svg">

    <g stroke="null" transform="matrix(2.593106007732617,0,0,2.5293106007732617,33.14240198522162,23.18502043936323)" featurekey="symbolFeature-0" id="SvgjsG1017">
     <g stroke="null" xmlns="http://www.w3.org/2000/svg">
      <path stroke="null" d="m10.1,80.7c5.6,4.2 12.6,4.1 19.3,3.1c7.6,-1.1 14.8,-2.8 22.5,-2.8c7.5,0 15.2,2 22.7,1c6.6,-0.9 12.1,-4.9 13.9,-11.5c1.7,-6 0.1,-12.7 -4.6,-16.9c-3.3,-2.9 -8.1,1.9 -4.8,4.8c3,2.6 3.9,6.8 2.7,10.6c-1.6,4.9 -6.4,6.3 -11.1,6.3c-5.9,0 -11.7,-1.2 -17.5,-1.2c-6.4,0 -12.8,0.7 -19.1,1.9c-5.2,1 -11.1,2.6 -16.3,1c-4.8,-1.4 -7.5,-5.7 -7.8,-10.5c-0.6,-11 10.2,-18.7 19.2,-22.4c5.7,-2.3 11.9,-3.5 18,-3.7c3.3,-0.1 6.6,0.1 9.9,0.7c3,0.5 5.9,1.3 8.9,1.3c1.1,0 1.8,-1.5 0.9,-2.3c-4.9,-4.4 -12.5,-5.3 -18.8,-5.6c-7,-0.4 -14.2,0.8 -20.7,3.3c-11.6,4.5 -23.7,13.6 -24.3,27c-0.3,6 2.1,12.3 7,15.9z"/>
      <path stroke="null" d="m76.6,46.7c-0.4,-0.2 -0.7,-0.5 -1.1,-0.7c-0.5,-0.3 -1.3,-0.4 -1.9,-0.2c-0.5,0.2 -0.9,0.5 -1.3,0.9c-0.8,1 -0.6,2.3 0.2,3.2c0.3,0.3 0.6,0.7 0.9,1c0.5,0.5 1.2,0.7 1.9,0.8c0.8,0 1.6,-0.4 2.1,-1c0.4,-0.6 0.6,-1.2 0.5,-1.9c-0.1,-1 -0.6,-1.6 -1.3,-2.1z"/>
      <path stroke="null" d="m30.3,58.1c-2.3,1 -4.2,2.5 -5.8,4.3c-1.2,1.3 -1.4,3.1 -0.3,4.6c1,1.3 3,1.9 4.5,0.9c1.8,-1.2 3.5,-2.4 5.5,-3.2c1.8,-0.8 2.4,-3.6 1.4,-5.2c-1.3,-1.9 -3.3,-2.3 -5.3,-1.4z"/>
      <path stroke="null" d="m59.6,58.1c-1.8,-0.8 -4.2,-0.6 -5.2,1.4c-0.9,1.6 -0.6,4.4 1.4,5.2c1.9,0.8 3.7,2 5.5,3.2c1.4,1 3.5,0.4 4.5,-0.9c1.1,-1.4 0.9,-3.2 -0.3,-4.6c-1.7,-1.8 -3.6,-3.3 -5.9,-4.3z"/>
      <path stroke="null" d="m82.8,12c-1.3,-2.1 -4.5,-3.4 -6.8,-1.8c-2.5,1.8 -4.9,3.2 -6.6,5.9c-1.1,1.8 0.1,3.6 1.7,4.3c3,1.2 6.9,0 9.8,-1.7c2.4,-1.2 3.4,-4.5 1.9,-6.7z"/>
      <path stroke="null" d="m7,18.8c2.9,1.7 6.8,2.9 9.8,1.7c1.7,-0.7 2.8,-2.5 1.7,-4.3c-1.7,-2.8 -4.1,-4.1 -6.6,-5.9c-2,-1.6 -5.5,-0.5 -6.7,1.7c-1.2,2.4 -0.6,5.4 1.8,6.8z"/>
     </g>
    </g>
   </svg>
    <svg stroke="null" y="150" viewBox="0 0 312.5 308.60782283369844" height="150" width="150" fill="#ffffff" xmlns:xlink="http://www.w3.org/1999/xlink" xmlns="http://www.w3.org/2000/svg">

    <g stroke="null" transform="matrix(2.593106007732617,0,0,2.5293106007732617,33.14240198522162,23.18502043936323)" featurekey="symbolFeature-0" id="SvgjsG1017">
     <g stroke="null" xmlns="http://www.w3.org/2000/svg">
      <path stroke="null" d="m10.1,80.7c5.6,4.2 12.6,4.1 19.3,3.1c7.6,-1.1 14.8,-2.8 22.5,-2.8c7.5,0 15.2,2 22.7,1c6.6,-0.9 12.1,-4.9 13.9,-11.5c1.7,-6 0.1,-12.7 -4.6,-16.9c-3.3,-2.9 -8.1,1.9 -4.8,4.8c3,2.6 3.9,6.8 2.7,10.6c-1.6,4.9 -6.4,6.3 -11.1,6.3c-5.9,0 -11.7,-1.2 -17.5,-1.2c-6.4,0 -12.8,0.7 -19.1,1.9c-5.2,1 -11.1,2.6 -16.3,1c-4.8,-1.4 -7.5,-5.7 -7.8,-10.5c-0.6,-11 10.2,-18.7 19.2,-22.4c5.7,-2.3 11.9,-3.5 18,-3.7c3.3,-0.1 6.6,0.1 9.9,0.7c3,0.5 5.9,1.3 8.9,1.3c1.1,0 1.8,-1.5 0.9,-2.3c-4.9,-4.4 -12.5,-5.3 -18.8,-5.6c-7,-0.4 -14.2,0.8 -20.7,3.3c-11.6,4.5 -23.7,13.6 -24.3,27c-0.3,6 2.1,12.3 7,15.9z"/>
      <path stroke="null" d="m76.6,46.7c-0.4,-0.2 -0.7,-0.5 -1.1,-0.7c-0.5,-0.3 -1.3,-0.4 -1.9,-0.2c-0.5,0.2 -0.9,0.5 -1.3,0.9c-0.8,1 -0.6,2.3 0.2,3.2c0.3,0.3 0.6,0.7 0.9,1c0.5,0.5 1.2,0.7 1.9,0.8c0.8,0 1.6,-0.4 2.1,-1c0.4,-0.6 0.6,-1.2 0.5,-1.9c-0.1,-1 -0.6,-1.6 -1.3,-2.1z"/>
      <path stroke="null" d="m30.3,58.1c-2.3,1 -4.2,2.5 -5.8,4.3c-1.2,1.3 -1.4,3.1 -0.3,4.6c1,1.3 3,1.9 4.5,0.9c1.8,-1.2 3.5,-2.4 5.5,-3.2c1.8,-0.8 2.4,-3.6 1.4,-5.2c-1.3,-1.9 -3.3,-2.3 -5.3,-1.4z"/>
      <path stroke="null" d="m59.6,58.1c-1.8,-0.8 -4.2,-0.6 -5.2,1.4c-0.9,1.6 -0.6,4.4 1.4,5.2c1.9,0.8 3.7,2 5.5,3.2c1.4,1 3.5,0.4 4.5,-0.9c1.1,-1.4 0.9,-3.2 -0.3,-4.6c-1.7,-1.8 -3.6,-3.3 -5.9,-4.3z"/>
      <path stroke="null" d="m82.8,12c-1.3,-2.1 -4.5,-3.4 -6.8,-1.8c-2.5,1.8 -4.9,3.2 -6.6,5.9c-1.1,1.8 0.1,3.6 1.7,4.3c3,1.2 6.9,0 9.8,-1.7c2.4,-1.2 3.4,-4.5 1.9,-6.7z"/>
      <path stroke="null" d="m7,18.8c2.9,1.7 6.8,2.9 9.8,1.7c1.7,-0.7 2.8,-2.5 1.7,-4.3c-1.7,-2.8 -4.1,-4.1 -6.6,-5.9c-2,-1.6 -5.5,-0.5 -6.7,1.7c-1.2,2.4 -0.6,5.4 1.8,6.8z"/>
     </g>
    </g>
   </svg>
   <svg stroke="null" x="150" y="150" viewBox="0 0 312.5 308.60782283369844" height="150" width="150" fill="#26242e" xmlns:xlink="http://www.w3.org/1999/xlink" xmlns="http://www.w3.org/2000/svg">

    <g stroke="null" transform="matrix(2.593106007732617,0,0,2.5293106007732617,33.14240198522162,23.18502043936323)" featurekey="symbolFeature-0" id="svg_4">
     <g stroke="null" xmlns="http://www.w3.org/2000/svg">
      <path stroke="null" d="m10.1,80.7c5.6,4.2 12.6,4.1 19.3,3.1c7.6,-1.1 14.8,-2.8 22.5,-2.8c7.5,0 15.2,2 22.7,1c6.6,-0.9 12.1,-4.9 13.9,-11.5c1.7,-6 0.1,-12.7 -4.6,-16.9c-3.3,-2.9 -8.1,1.9 -4.8,4.8c3,2.6 3.9,6.8 2.7,10.6c-1.6,4.9 -6.4,6.3 -11.1,6.3c-5.9,0 -11.7,-1.2 -17.5,-1.2c-6.4,0 -12.8,0.7 -19.1,1.9c-5.2,1 -11.1,2.6 -16.3,1c-4.8,-1.4 -7.5,-5.7 -7.8,-10.5c-0.6,-11 10.2,-18.7 19.2,-22.4c5.7,-2.3 11.9,-3.5 18,-3.7c3.3,-0.1 6.6,0.1 9.9,0.7c3,0.5 5.9,1.3 8.9,1.3c1.1,0 1.8,-1.5 0.9,-2.3c-4.9,-4.4 -12.5,-5.3 -18.8,-5.6c-7,-0.4 -14.2,0.8 -20.7,3.3c-11.6,4.5 -23.7,13.6 -24.3,27c-0.3,6 2.1,12.3 7,15.9z"/>
      <path stroke="null" d="m76.6,46.7c-0.4,-0.2 -0.7,-0.5 -1.1,-0.7c-0.5,-0.3 -1.3,-0.4 -1.9,-0.2c-0.5,0.2 -0.9,0.5 -1.3,0.9c-0.8,1 -0.6,2.3 0.2,3.2c0.3,0.3 0.6,0.7 0.9,1c0.5,0.5 1.2,0.7 1.9,0.8c0.8,0 1.6,-0.4 2.1,-1c0.4,-0.6 0.6,-1.2 0.5,-1.9c-0.1,-1 -0.6,-1.6 -1.3,-2.1z"/>
      <path stroke="null" d="m30.3,58.1c-2.3,1 -4.2,2.5 -5.8,4.3c-1.2,1.3 -1.4,3.1 -0.3,4.6c1,1.3 3,1.9 4.5,0.9c1.8,-1.2 3.5,-2.4 5.5,-3.2c1.8,-0.8 2.4,-3.6 1.4,-5.2c-1.3,-1.9 -3.3,-2.3 -5.3,-1.4z"/>
      <path stroke="null" d="m59.6,58.1c-1.8,-0.8 -4.2,-0.6 -5.2,1.4c-0.9,1.6 -0.6,4.4 1.4,5.2c1.9,0.8 3.7,2 5.5,3.2c1.4,1 3.5,0.4 4.5,-0.9c1.1,-1.4 0.9,-3.2 -0.3,-4.6c-1.7,-1.8 -3.6,-3.3 -5.9,-4.3z"/>
      <path stroke="null" d="m82.8,12c-1.3,-2.1 -4.5,-3.4 -6.8,-1.8c-2.5,1.8 -4.9,3.2 -6.6,5.9c-1.1,1.8 0.1,3.6 1.7,4.3c3,1.2 6.9,0 9.8,-1.7c2.4,-1.2 3.4,-4.5 1.9,-6.7z"/>
      <path stroke="null" d="m7,18.8c2.9,1.7 6.8,2.9 9.8,1.7c1.7,-0.7 2.8,-2.5 1.7,-4.3c-1.7,-2.8 -4.1,-4.1 -6.6,-5.9c-2,-1.6 -5.5,-0.5 -6.7,1.7c-1.2,2.4 -0.6,5.4 1.8,6.8z"/>
     </g>
    </g>
   </svg>
  </g>
 </g>

</svg>